# xmcd
#
# Track frame offsets: 
#        150
#        12572
#        25246
#        38969
#        52904
#        65762
#        79019
#        90264
#        105611
#        119138
#        132988
#        142494
#        153585
#        166214
#        179213
#        192861
#        207078
#        218291
#        236855
#        250347
#        263951
#        271494
#        280821
#        292863
#        304050
#
# Disc length: 4238 seconds
#
# Revision: 1
# Processed by: cddbd v1.5.2PL0 Copyright (c) Steve Scherf et al.
# Submitted via: ExactAudioCopy v1.1
#
DISCID=7a108c19
DTITLE=Smokey Smothers - Smokey Smothers Sings The Backporch Blues
DYEAR=1962
DGENRE=Blues
TTITLE0=I Can't Judge Nobody
TTITLE1=Come on Rock Little Girl
TTITLE2=Honey I Ain't Teasin'
TTITLE3=You're Gonna Be Sorry
TTITLE4=(What I Done for You) Give It Back
TTITLE5=Smokey's Love Sick Blues
TTITLE6=I've Been Drinking Muddy Water
TTITLE7=Crying Tears
TTITLE8=Midnight and Day
TTITLE9=Blind and Dumb Man Blues
TTITLE10=What Am I Going to Do
TTITLE11=I An't Gonna Be No Monkey Man No More
TTITLE12=The Case Is Closed
TTITLE13=Way Up in the Mountains of Kentucky
TTITLE14=Hello Little School Girl
TTITLE15=Twist With Me Annie
TTITLE16=I've Been Drinking Muddy Water (alt)
TTITLE17=Blind and Dumb Man Blues (alt - take 1)
TTITLE18=Honey I Ain't Teasin' (alt - take 2)
TTITLE19=Smokey's Love Sick Blues (alt - take 1)
TTITLE20=Come On Rock Little Girl (alt - incomplete)
TTITLE21=Midnight and Day (alt - take 1 - incomplete)
TTITLE22=(What I Done for You) Give It Back (alt - take 1)
TTITLE23=I Ain't Gonna Be No Monkey Man No More (alt - take 2)
TTITLE24=You're Gonna Be Sorry (alt - take 1)
EXTD=
EXTT0=
EXTT1=
EXTT2=
EXTT3=
EXTT4=
EXTT5=
EXTT6=
EXTT7=
EXTT8=
EXTT9=
EXTT10=
EXTT11=
EXTT12=
EXTT13=
EXTT14=
EXTT15=
EXTT16=
EXTT17=
EXTT18=
EXTT19=
EXTT20=
EXTT21=
EXTT22=
EXTT23=
EXTT24=
PLAYORDER=
